#N canvas 0 22 450 300 10;
#N canvas 405 209 598 153 destruction 0;
#N canvas 0 22 1052 675 samp1 0;
#X obj 363 284 bng 15 250 50 0 empty empty empty 17 7 0 10 -262144
-1 -1;
#X obj 381 284 bng 15 250 50 0 empty empty empty 17 7 0 10 -262144
-1 -1;
#X obj 399 284 bng 15 250 50 0 empty empty empty 17 7 0 10 -262144
-1 -1;
#X obj 417 284 bng 15 250 50 0 empty empty empty 17 7 0 10 -262144
-1 -1;
#X obj 435 284 bng 15 250 50 0 empty empty empty 17 7 0 10 -262144
-1 -1;
#X obj 79 502 readsf~;
#X msg 131 502 1;
#X obj 369 257 route 0 1 2 3 4 5 6 7;
#X obj 453 284 bng 15 250 50 0 empty empty empty 17 7 0 10 -262144
-1 -1;
#X obj 471 284 bng 15 250 50 0 empty empty empty 17 7 0 10 -262144
-1 -1;
#X obj 489 284 bng 15 250 50 0 empty empty empty 17 7 0 10 -262144
-1 -1;
#X obj 171 501 readsf~;
#X msg 223 501 1;
#X obj 262 500 readsf~;
#X msg 314 500 1;
#X obj 354 499 readsf~;
#X msg 406 499 1;
#X obj 445 499 readsf~;
#X msg 497 499 1;
#X obj 537 498 readsf~;
#X msg 589 498 1;
#X obj 628 497 readsf~;
#X msg 680 497 1;
#X obj 720 496 readsf~;
#X msg 772 496 1;
#X obj 79 577 dac~ 1;
#X msg 79 475 open des1.wav;
#X msg 171 474 open des1.wav;
#X msg 262 473 open des1.wav;
#X msg 353 472 open des1.wav;
#X msg 445 472 open des1.wav;
#X msg 537 471 open des1.wav;
#X msg 628 470 open des1.wav;
#X msg 720 469 open des1.wav;
#X obj 79 554 *~ 0.1;
#X obj 171 553 *~ 0.1;
#X obj 79 531 lop~;
#X obj 171 531 lop~;
#X floatatom 532 160 10 0 0 0 - - -;
#X obj 532 134 norm100;
#X obj 551 86 r init;
#X obj 532 62 r i1;
#X obj 100 223 random 4000;
#X floatatom 100 246 5 0 0 0 - - -;
#X obj 2 246 / 100;
#X floatatom 2 268 5 0 0 0 - - -;
#X obj 2 223 random 30;
#X text 102 164 Random LOP;
#X text -6 131 Random Gain;
#X obj 262 550 *~ 0.1;
#X obj 262 528 lop~;
#X obj 354 551 *~ 0.1;
#X obj 354 529 lop~;
#X obj 445 553 *~ 0.1;
#X obj 445 531 lop~;
#X obj 537 552 *~ 0.1;
#X obj 537 530 lop~;
#X obj 628 552 *~ 0.1;
#X obj 628 530 lop~;
#X obj 720 549 *~ 0.1;
#X obj 720 527 lop~;
#X obj 171 577 dac~ 2;
#X obj 263 574 dac~ 3;
#X obj 354 575 dac~ 4;
#X obj 445 577 dac~ 5;
#X obj 537 576 dac~ 6;
#X obj 628 576 dac~ 7;
#X obj 720 574 dac~ 8;
#X text 625 316 Random time for Metro;
#X msg 595 111 20000;
#X obj 2 177 r init;
#X obj 100 201 metro 1000;
#X obj 2 201 metro 1000;
#X obj 369 150 r init;
#X obj 369 201 random 8;
#X floatatom 369 230 5 0 0 0 - - -;
#X msg 551 111 100000;
#X obj 369 176 metro 1000;
#X obj 308 217 bng 15 250 50 0 empty empty empty 17 7 0 10 -262144
-1 -1;
#X connect 0 0 26 0;
#X connect 0 0 6 0;
#X connect 1 0 27 0;
#X connect 1 0 12 0;
#X connect 2 0 28 0;
#X connect 2 0 14 0;
#X connect 3 0 29 0;
#X connect 3 0 16 0;
#X connect 4 0 30 0;
#X connect 4 0 18 0;
#X connect 5 0 36 0;
#X connect 6 0 5 0;
#X connect 7 0 0 0;
#X connect 7 1 1 0;
#X connect 7 2 2 0;
#X connect 7 3 3 0;
#X connect 7 4 4 0;
#X connect 7 5 8 0;
#X connect 7 6 9 0;
#X connect 7 7 10 0;
#X connect 8 0 31 0;
#X connect 8 0 20 0;
#X connect 9 0 32 0;
#X connect 9 0 22 0;
#X connect 10 0 33 0;
#X connect 10 0 24 0;
#X connect 11 0 37 0;
#X connect 12 0 11 0;
#X connect 13 0 50 0;
#X connect 14 0 13 0;
#X connect 15 0 52 0;
#X connect 16 0 15 0;
#X connect 17 0 54 0;
#X connect 18 0 17 0;
#X connect 19 0 56 0;
#X connect 20 0 19 0;
#X connect 21 0 58 0;
#X connect 22 0 21 0;
#X connect 23 0 60 0;
#X connect 24 0 23 0;
#X connect 26 0 5 0;
#X connect 27 0 11 0;
#X connect 28 0 13 0;
#X connect 29 0 15 0;
#X connect 30 0 17 0;
#X connect 31 0 19 0;
#X connect 32 0 21 0;
#X connect 33 0 23 0;
#X connect 34 0 25 0;
#X connect 35 0 61 0;
#X connect 36 0 34 0;
#X connect 37 0 35 0;
#X connect 38 0 77 1;
#X connect 39 0 38 0;
#X connect 40 0 76 0;
#X connect 40 0 69 0;
#X connect 41 0 39 0;
#X connect 42 0 43 0;
#X connect 43 0 36 1;
#X connect 43 0 37 1;
#X connect 43 0 60 1;
#X connect 43 0 58 1;
#X connect 43 0 56 1;
#X connect 43 0 54 1;
#X connect 43 0 52 1;
#X connect 43 0 50 1;
#X connect 44 0 45 0;
#X connect 45 0 34 1;
#X connect 45 0 35 1;
#X connect 45 0 59 1;
#X connect 45 0 57 1;
#X connect 45 0 55 1;
#X connect 45 0 51 1;
#X connect 45 0 49 1;
#X connect 45 0 53 1;
#X connect 46 0 44 0;
#X connect 49 0 62 0;
#X connect 50 0 49 0;
#X connect 51 0 63 0;
#X connect 52 0 51 0;
#X connect 53 0 64 0;
#X connect 54 0 53 0;
#X connect 55 0 65 0;
#X connect 56 0 55 0;
#X connect 57 0 66 0;
#X connect 58 0 57 0;
#X connect 59 0 67 0;
#X connect 60 0 59 0;
#X connect 69 0 39 2;
#X connect 70 0 71 0;
#X connect 70 0 72 0;
#X connect 71 0 42 0;
#X connect 72 0 46 0;
#X connect 73 0 77 0;
#X connect 74 0 75 0;
#X connect 74 0 78 0;
#X connect 75 0 7 0;
#X connect 76 0 39 1;
#X connect 77 0 74 0;
#X connect 78 0 42 0;
#X restore 36 94 pd samp1;
#X obj 219 25 r start;
#N canvas 902 218 450 300 original 0;
#X obj 332 100 random 5;
#X floatatom 332 125 5 0 0 0 - - -;
#X obj 332 53 bng 15 250 50 0 empty empty empty 17 7 0 10 -262144 -1
-1;
#X obj 332 76 metro 500;
#X obj 326 176 bng 15 250 50 0 empty empty empty 17 7 0 10 -262144
-1 -1;
#X obj 344 176 bng 15 250 50 0 empty empty empty 17 7 0 10 -262144
-1 -1;
#X obj 362 176 bng 15 250 50 0 empty empty empty 17 7 0 10 -262144
-1 -1;
#X obj 380 176 bng 15 250 50 0 empty empty empty 17 7 0 10 -262144
-1 -1;
#X obj 398 176 bng 15 250 50 0 empty empty empty 17 7 0 10 -262144
-1 -1;
#X obj 42 394 readsf~;
#X obj 263 93 random 8;
#X msg 94 394 1;
#X msg 42 367 open des2.wav;
#X obj 332 149 route 0 1 2 3 4 5 6 7;
#X obj 416 176 bng 15 250 50 0 empty empty empty 17 7 0 10 -262144
-1 -1;
#X obj 434 176 bng 15 250 50 0 empty empty empty 17 7 0 10 -262144
-1 -1;
#X obj 452 176 bng 15 250 50 0 empty empty empty 17 7 0 10 -262144
-1 -1;
#X obj 134 393 readsf~;
#X msg 186 393 1;
#X msg 134 366 open des2.wav;
#X obj 225 392 readsf~;
#X msg 277 392 1;
#X msg 225 365 open des2.wav;
#X obj 317 391 readsf~;
#X msg 369 391 1;
#X msg 317 364 open des2.wav;
#X obj 408 391 readsf~;
#X msg 460 391 1;
#X msg 408 364 open des2.wav;
#X obj 500 390 readsf~;
#X msg 552 390 1;
#X msg 500 363 open des2.wav;
#X obj 591 389 readsf~;
#X msg 643 389 1;
#X msg 591 362 open des2.wav;
#X obj 683 388 readsf~;
#X msg 735 388 1;
#X msg 683 361 open des2.wav;
#X obj 42 419 dac~ 1;
#X obj 134 418 dac~ 2;
#X obj 225 417 dac~ 3;
#X obj 317 416 dac~ 4;
#X obj 408 416 dac~ 5;
#X obj 500 415 dac~ 6;
#X obj 591 414 dac~ 7;
#X obj 683 413 dac~ 8;
#X connect 0 0 1 0;
#X connect 1 0 13 0;
#X connect 2 0 3 0;
#X connect 3 0 0 0;
#X connect 3 0 10 0;
#X connect 4 0 12 0;
#X connect 4 0 11 0;
#X connect 5 0 19 0;
#X connect 5 0 18 0;
#X connect 6 0 22 0;
#X connect 6 0 21 0;
#X connect 7 0 25 0;
#X connect 7 0 24 0;
#X connect 8 0 28 0;
#X connect 8 0 27 0;
#X connect 9 0 38 0;
#X connect 11 0 9 0;
#X connect 12 0 9 0;
#X connect 13 0 4 0;
#X connect 13 1 5 0;
#X connect 13 2 6 0;
#X connect 13 3 7 0;
#X connect 13 4 8 0;
#X connect 13 5 14 0;
#X connect 13 6 15 0;
#X connect 13 7 16 0;
#X connect 14 0 31 0;
#X connect 14 0 30 0;
#X connect 15 0 34 0;
#X connect 15 0 33 0;
#X connect 16 0 37 0;
#X connect 16 0 36 0;
#X connect 17 0 39 0;
#X connect 18 0 17 0;
#X connect 19 0 17 0;
#X connect 20 0 40 0;
#X connect 21 0 20 0;
#X connect 22 0 20 0;
#X connect 23 0 41 0;
#X connect 24 0 23 0;
#X connect 25 0 23 0;
#X connect 26 0 42 0;
#X connect 27 0 26 0;
#X connect 28 0 26 0;
#X connect 29 0 43 0;
#X connect 30 0 29 0;
#X connect 31 0 29 0;
#X connect 32 0 44 0;
#X connect 33 0 32 0;
#X connect 34 0 32 0;
#X connect 35 0 45 0;
#X connect 36 0 35 0;
#X connect 37 0 35 0;
#X restore 498 94 pd original;
#N canvas 0 22 1440 731 samp2 0;
#X obj 838 396 bng 15 250 50 0 empty empty empty 17 7 0 10 -262144
-1 -1;
#X obj 856 396 bng 15 250 50 0 empty empty empty 17 7 0 10 -262144
-1 -1;
#X obj 874 396 bng 15 250 50 0 empty empty empty 17 7 0 10 -262144
-1 -1;
#X obj 892 396 bng 15 250 50 0 empty empty empty 17 7 0 10 -262144
-1 -1;
#X obj 910 396 bng 15 250 50 0 empty empty empty 17 7 0 10 -262144
-1 -1;
#X obj 554 614 readsf~;
#X msg 606 614 1;
#X obj 844 369 route 0 1 2 3 4 5 6 7;
#X obj 928 396 bng 15 250 50 0 empty empty empty 17 7 0 10 -262144
-1 -1;
#X obj 946 396 bng 15 250 50 0 empty empty empty 17 7 0 10 -262144
-1 -1;
#X obj 964 396 bng 15 250 50 0 empty empty empty 17 7 0 10 -262144
-1 -1;
#X obj 646 613 readsf~;
#X msg 698 613 1;
#X obj 737 612 readsf~;
#X msg 789 612 1;
#X obj 829 611 readsf~;
#X msg 881 611 1;
#X obj 920 611 readsf~;
#X msg 972 611 1;
#X obj 1012 610 readsf~;
#X msg 1064 610 1;
#X obj 1103 609 readsf~;
#X msg 1155 609 1;
#X obj 1195 608 readsf~;
#X msg 1247 608 1;
#X obj 554 689 dac~ 1;
#X obj 554 666 *~ 0.1;
#X obj 646 665 *~ 0.1;
#X obj 554 643 lop~;
#X obj 646 643 lop~;
#X floatatom 1007 272 10 0 0 0 - - -;
#X obj 1007 246 norm100;
#X obj 1026 198 r init;
#X obj 1007 174 r i1;
#X obj 575 344 random 4000;
#X floatatom 575 367 5 0 0 0 - - -;
#X obj 477 367 / 100;
#X floatatom 477 389 5 0 0 0 - - -;
#X obj 477 344 random 30;
#X text 577 285 Random LOP;
#X text 469 252 Random Gain;
#X obj 737 662 *~ 0.1;
#X obj 737 640 lop~;
#X obj 829 663 *~ 0.1;
#X obj 829 641 lop~;
#X obj 920 665 *~ 0.1;
#X obj 920 643 lop~;
#X obj 1012 664 *~ 0.1;
#X obj 1012 642 lop~;
#X obj 1103 664 *~ 0.1;
#X obj 1103 642 lop~;
#X obj 1195 661 *~ 0.1;
#X obj 1195 639 lop~;
#X obj 646 689 dac~ 2;
#X obj 738 686 dac~ 3;
#X obj 829 687 dac~ 4;
#X obj 920 689 dac~ 5;
#X obj 1012 688 dac~ 6;
#X obj 1103 688 dac~ 7;
#X obj 1195 686 dac~ 8;
#X text 1100 428 Random time for Metro;
#X msg 1070 223 20000;
#X obj 477 298 r init;
#X obj 575 322 metro 1000;
#X obj 477 322 metro 1000;
#X obj 844 262 r init;
#X obj 844 313 random 8;
#X floatatom 844 342 5 0 0 0 - - -;
#X msg 1026 223 100000;
#X obj 844 288 metro 1000;
#X obj 783 329 bng 15 250 50 0 empty empty empty 17 7 0 10 -262144
-1 -1;
#X msg 554 587 open des2.wav;
#X msg 646 586 open des2.wav;
#X msg 737 585 open des2.wav;
#X msg 828 584 open des2.wav;
#X msg 920 584 open des2.wav;
#X msg 1012 583 open des2.wav;
#X msg 1103 582 open des2.wav;
#X msg 1195 581 open des2.wav;
#X connect 0 0 71 0;
#X connect 0 0 6 0;
#X connect 1 0 72 0;
#X connect 1 0 12 0;
#X connect 2 0 73 0;
#X connect 2 0 14 0;
#X connect 3 0 74 0;
#X connect 3 0 16 0;
#X connect 4 0 75 0;
#X connect 4 0 18 0;
#X connect 5 0 28 0;
#X connect 6 0 5 0;
#X connect 7 0 0 0;
#X connect 7 1 1 0;
#X connect 7 2 2 0;
#X connect 7 3 3 0;
#X connect 7 4 4 0;
#X connect 7 5 8 0;
#X connect 7 6 9 0;
#X connect 7 7 10 0;
#X connect 8 0 76 0;
#X connect 8 0 20 0;
#X connect 9 0 77 0;
#X connect 9 0 22 0;
#X connect 10 0 78 0;
#X connect 10 0 24 0;
#X connect 11 0 29 0;
#X connect 12 0 11 0;
#X connect 13 0 42 0;
#X connect 14 0 13 0;
#X connect 15 0 44 0;
#X connect 16 0 15 0;
#X connect 17 0 46 0;
#X connect 18 0 17 0;
#X connect 19 0 48 0;
#X connect 20 0 19 0;
#X connect 21 0 50 0;
#X connect 22 0 21 0;
#X connect 23 0 52 0;
#X connect 24 0 23 0;
#X connect 26 0 25 0;
#X connect 27 0 53 0;
#X connect 28 0 26 0;
#X connect 29 0 27 0;
#X connect 30 0 69 1;
#X connect 31 0 30 0;
#X connect 32 0 68 0;
#X connect 32 0 61 0;
#X connect 33 0 31 0;
#X connect 34 0 35 0;
#X connect 35 0 28 1;
#X connect 35 0 29 1;
#X connect 35 0 52 1;
#X connect 35 0 50 1;
#X connect 35 0 48 1;
#X connect 35 0 46 1;
#X connect 35 0 44 1;
#X connect 35 0 42 1;
#X connect 36 0 37 0;
#X connect 37 0 26 1;
#X connect 37 0 27 1;
#X connect 37 0 51 1;
#X connect 37 0 49 1;
#X connect 37 0 47 1;
#X connect 37 0 43 1;
#X connect 37 0 41 1;
#X connect 37 0 45 1;
#X connect 38 0 36 0;
#X connect 41 0 54 0;
#X connect 42 0 41 0;
#X connect 43 0 55 0;
#X connect 44 0 43 0;
#X connect 45 0 56 0;
#X connect 46 0 45 0;
#X connect 47 0 57 0;
#X connect 48 0 47 0;
#X connect 49 0 58 0;
#X connect 50 0 49 0;
#X connect 51 0 59 0;
#X connect 52 0 51 0;
#X connect 61 0 31 2;
#X connect 62 0 63 0;
#X connect 62 0 64 0;
#X connect 63 0 34 0;
#X connect 64 0 38 0;
#X connect 65 0 69 0;
#X connect 66 0 67 0;
#X connect 66 0 70 0;
#X connect 67 0 7 0;
#X connect 68 0 31 1;
#X connect 69 0 66 0;
#X connect 70 0 34 0;
#X connect 71 0 5 0;
#X connect 72 0 11 0;
#X connect 73 0 13 0;
#X connect 74 0 15 0;
#X connect 75 0 17 0;
#X connect 76 0 19 0;
#X connect 77 0 21 0;
#X connect 78 0 23 0;
#X restore 96 94 pd samp2;
#N canvas 0 22 1440 731 samp3 0;
#X obj 838 396 bng 15 250 50 0 empty empty empty 17 7 0 10 -262144
-1 -1;
#X obj 856 396 bng 15 250 50 0 empty empty empty 17 7 0 10 -262144
-1 -1;
#X obj 874 396 bng 15 250 50 0 empty empty empty 17 7 0 10 -262144
-1 -1;
#X obj 892 396 bng 15 250 50 0 empty empty empty 17 7 0 10 -262144
-1 -1;
#X obj 910 396 bng 15 250 50 0 empty empty empty 17 7 0 10 -262144
-1 -1;
#X obj 554 614 readsf~;
#X msg 606 614 1;
#X obj 844 369 route 0 1 2 3 4 5 6 7;
#X obj 928 396 bng 15 250 50 0 empty empty empty 17 7 0 10 -262144
-1 -1;
#X obj 946 396 bng 15 250 50 0 empty empty empty 17 7 0 10 -262144
-1 -1;
#X obj 964 396 bng 15 250 50 0 empty empty empty 17 7 0 10 -262144
-1 -1;
#X obj 646 613 readsf~;
#X msg 698 613 1;
#X obj 737 612 readsf~;
#X msg 789 612 1;
#X obj 829 611 readsf~;
#X msg 881 611 1;
#X obj 920 611 readsf~;
#X msg 972 611 1;
#X obj 1012 610 readsf~;
#X msg 1064 610 1;
#X obj 1103 609 readsf~;
#X msg 1155 609 1;
#X obj 1195 608 readsf~;
#X msg 1247 608 1;
#X obj 554 689 dac~ 1;
#X obj 554 666 *~ 0.1;
#X obj 646 665 *~ 0.1;
#X obj 554 643 lop~;
#X obj 646 643 lop~;
#X floatatom 1007 272 10 0 0 0 - - -;
#X obj 1007 246 norm100;
#X obj 1026 198 r init;
#X obj 1007 174 r i1;
#X obj 575 335 random 4000;
#X floatatom 575 358 5 0 0 0 - - -;
#X obj 477 358 / 100;
#X floatatom 477 380 5 0 0 0 - - -;
#X obj 477 335 random 30;
#X text 577 276 Random LOP;
#X text 469 243 Random Gain;
#X obj 737 662 *~ 0.1;
#X obj 737 640 lop~;
#X obj 829 663 *~ 0.1;
#X obj 829 641 lop~;
#X obj 920 665 *~ 0.1;
#X obj 920 643 lop~;
#X obj 1012 664 *~ 0.1;
#X obj 1012 642 lop~;
#X obj 1103 664 *~ 0.1;
#X obj 1103 642 lop~;
#X obj 1195 661 *~ 0.1;
#X obj 1195 639 lop~;
#X obj 646 689 dac~ 2;
#X obj 738 686 dac~ 3;
#X obj 829 687 dac~ 4;
#X obj 920 689 dac~ 5;
#X obj 1012 688 dac~ 6;
#X obj 1103 688 dac~ 7;
#X obj 1195 686 dac~ 8;
#X text 1100 428 Random time for Metro;
#X msg 1070 223 20000;
#X obj 477 289 r init;
#X obj 575 313 metro 1000;
#X obj 477 313 metro 1000;
#X obj 844 262 r init;
#X obj 844 313 random 8;
#X floatatom 844 342 5 0 0 0 - - -;
#X msg 1026 223 100000;
#X obj 844 288 metro 1000;
#X obj 783 329 bng 15 250 50 0 empty empty empty 17 7 0 10 -262144
-1 -1;
#X msg 554 587 open des3.wav;
#X msg 646 586 open des3.wav;
#X msg 737 585 open des3.wav;
#X msg 828 584 open des3.wav;
#X msg 920 584 open des3.wav;
#X msg 1012 583 open des3.wav;
#X msg 1103 582 open des3.wav;
#X msg 1195 581 open des3.wav;
#X connect 0 0 71 0;
#X connect 0 0 6 0;
#X connect 1 0 72 0;
#X connect 1 0 12 0;
#X connect 2 0 73 0;
#X connect 2 0 14 0;
#X connect 3 0 74 0;
#X connect 3 0 16 0;
#X connect 4 0 75 0;
#X connect 4 0 18 0;
#X connect 5 0 28 0;
#X connect 6 0 5 0;
#X connect 7 0 0 0;
#X connect 7 1 1 0;
#X connect 7 2 2 0;
#X connect 7 3 3 0;
#X connect 7 4 4 0;
#X connect 7 5 8 0;
#X connect 7 6 9 0;
#X connect 7 7 10 0;
#X connect 8 0 76 0;
#X connect 8 0 20 0;
#X connect 9 0 77 0;
#X connect 9 0 22 0;
#X connect 10 0 78 0;
#X connect 10 0 24 0;
#X connect 11 0 29 0;
#X connect 12 0 11 0;
#X connect 13 0 42 0;
#X connect 14 0 13 0;
#X connect 15 0 44 0;
#X connect 16 0 15 0;
#X connect 17 0 46 0;
#X connect 18 0 17 0;
#X connect 19 0 48 0;
#X connect 20 0 19 0;
#X connect 21 0 50 0;
#X connect 22 0 21 0;
#X connect 23 0 52 0;
#X connect 24 0 23 0;
#X connect 26 0 25 0;
#X connect 27 0 53 0;
#X connect 28 0 26 0;
#X connect 29 0 27 0;
#X connect 30 0 69 1;
#X connect 31 0 30 0;
#X connect 32 0 68 0;
#X connect 32 0 61 0;
#X connect 33 0 31 0;
#X connect 34 0 35 0;
#X connect 35 0 28 1;
#X connect 35 0 29 1;
#X connect 35 0 52 1;
#X connect 35 0 50 1;
#X connect 35 0 48 1;
#X connect 35 0 46 1;
#X connect 35 0 44 1;
#X connect 35 0 42 1;
#X connect 36 0 37 0;
#X connect 37 0 26 1;
#X connect 37 0 27 1;
#X connect 37 0 51 1;
#X connect 37 0 49 1;
#X connect 37 0 47 1;
#X connect 37 0 43 1;
#X connect 37 0 41 1;
#X connect 37 0 45 1;
#X connect 38 0 36 0;
#X connect 41 0 54 0;
#X connect 42 0 41 0;
#X connect 43 0 55 0;
#X connect 44 0 43 0;
#X connect 45 0 56 0;
#X connect 46 0 45 0;
#X connect 47 0 57 0;
#X connect 48 0 47 0;
#X connect 49 0 58 0;
#X connect 50 0 49 0;
#X connect 51 0 59 0;
#X connect 52 0 51 0;
#X connect 61 0 31 2;
#X connect 62 0 63 0;
#X connect 62 0 64 0;
#X connect 63 0 34 0;
#X connect 64 0 38 0;
#X connect 65 0 69 0;
#X connect 66 0 67 0;
#X connect 66 0 70 0;
#X connect 67 0 7 0;
#X connect 68 0 31 1;
#X connect 69 0 66 0;
#X connect 70 0 34 0;
#X connect 71 0 5 0;
#X connect 72 0 11 0;
#X connect 73 0 13 0;
#X connect 74 0 15 0;
#X connect 75 0 17 0;
#X connect 76 0 19 0;
#X connect 77 0 21 0;
#X connect 78 0 23 0;
#X restore 156 95 pd samp3;
#X restore 61 118 pd destruction;
