#N canvas 712 38 784 801 10;
#X floatatom 381 241 5 0 0 0 - - -;
#X floatatom 429 242 5 0 0 0 - - -;
#X floatatom 568 143 5 0 0 0 - - -;
#X floatatom 522 143 5 0 0 0 - - -;
#X obj 542 192 -;
#X obj 399 288 -;
#X floatatom 399 323 5 0 0 0 - - -;
#X floatatom 542 222 5 0 0 0 - - -;
#X obj 301 181 -;
#X floatatom 309 246 5 0 0 0 - - -;
#X floatatom 341 359 5 0 0 0 - - -;
#X obj 362 431 /;
#X floatatom 361 463 5 0 0 0 - - -;
#X obj 339 300 *;
#X msg 295 17 50;
#X msg 381 172 0.7;
#X msg 429 171 0.8;
#X obj 402 522 +;
#X floatatom 402 563 5 0 0 0 - - -;
#X obj 429 196 inlet;
#X obj 402 602 outlet;
#X obj 381 196 inlet;
#X obj 301 49 inlet;
#X msg 568 91 100;
#X obj 568 63 r init;
#X connect 0 0 5 1;
#X connect 0 0 17 1;
#X connect 1 0 5 0;
#X connect 2 0 4 0;
#X connect 3 0 4 1;
#X connect 3 0 8 1;
#X connect 4 0 7 0;
#X connect 5 0 6 0;
#X connect 6 0 13 1;
#X connect 7 0 11 1;
#X connect 8 0 9 0;
#X connect 9 0 13 0;
#X connect 10 0 11 0;
#X connect 11 0 12 0;
#X connect 12 0 17 0;
#X connect 13 0 10 0;
#X connect 17 0 18 0;
#X connect 18 0 20 0;
#X connect 19 0 1 0;
#X connect 21 0 0 0;
#X connect 22 0 8 0;
#X connect 22 0 23 0;
#X connect 23 0 2 0;
#X connect 24 0 23 0;
