#N canvas 232 179 1180 619 10;
#X declare -lib mrpeach;
#X floatatom 639 339 5 0 0 0 - - -;
#X floatatom 792 340 5 0 0 0 - - -;
#X obj 640 366 select 1;
#X msg 640 394 1;
#X obj 669 395 bng 15 250 50 0 empty empty empty 17 7 0 10 -262144
-1 -1;
#X obj 791 364 select 1;
#X msg 791 392 1;
#X obj 820 393 bng 15 250 50 0 empty empty empty 17 7 0 10 -262144
-1 -1;
#X obj 337 304 str compare 10.0.1.101;
#X msg 335 269 10.0.1.101;
#X floatatom 336 340 5 0 0 0 - - -;
#X floatatom 489 341 5 0 0 0 - - -;
#X msg 488 270 10.0.1.102;
#X obj 490 305 str compare 10.0.1.102;
#X obj 337 367 select 1;
#X msg 337 395 1;
#X obj 366 396 bng 15 250 50 0 empty empty empty 17 7 0 10 -262144
-1 -1;
#X obj 488 365 select 1;
#X msg 488 393 1;
#X obj 517 394 bng 15 250 50 0 empty empty empty 17 7 0 10 -262144
-1 -1;
#X msg 638 268 10.0.1.103;
#X obj 640 303 str compare 10.0.1.103;
#X msg 791 269 10.0.1.104;
#X obj 508 74 unpackOSC;
#X obj 508 109 pipelist;
#X obj 508 151 routeOSC /pi/key;
#X obj 508 186 unpack 1 1 1 s s s;
#X obj 508 47 udpreceive 7000;
#X obj 793 304 str compare 10.0.1.104;
#X obj 130 83 import mrpeach;
#X obj 517 473 s reduce;
#X connect 0 0 2 0;
#X connect 1 0 5 0;
#X connect 2 0 3 0;
#X connect 2 0 4 0;
#X connect 4 0 30 0;
#X connect 5 0 6 0;
#X connect 5 0 7 0;
#X connect 7 0 30 0;
#X connect 8 0 10 0;
#X connect 9 0 8 0;
#X connect 10 0 14 0;
#X connect 11 0 17 0;
#X connect 12 0 13 0;
#X connect 13 0 11 0;
#X connect 14 0 15 0;
#X connect 14 0 16 0;
#X connect 16 0 30 0;
#X connect 17 0 18 0;
#X connect 17 0 19 0;
#X connect 19 0 30 0;
#X connect 20 0 21 0;
#X connect 21 0 0 0;
#X connect 22 0 28 0;
#X connect 23 0 24 0;
#X connect 23 1 24 1;
#X connect 24 0 25 0;
#X connect 25 0 26 0;
#X connect 26 4 8 0;
#X connect 26 4 13 0;
#X connect 26 4 21 0;
#X connect 26 4 28 0;
#X connect 27 0 23 0;
#X connect 28 0 1 0;
