#N canvas 59 23 735 732 10;
#X obj 160 117 bng 15 250 50 0 empty empty empty 17 7 0 10 -262144
-1 -1;
#X floatatom 160 215 5 0 0 0 - - -;
#X obj 160 168 float;
#X obj 225 168 + 1;
#X obj 131 344 select 30 60 90 120 150 180 210 240 270 300;
#X floatatom 250 449 10 0 0 0 - - -;
#X floatatom 88 152 5 0 0 0 - - -;
#X obj 23 88 bng 64 250 50 0 empty empty RESET 3 34 0 20 -258113 -1
-1;
#X obj 250 415 float;
#X obj 190 374 bng 15 250 50 0 empty empty empty 17 7 0 10 -262144
-1 -1;
#X obj 160 374 bng 15 250 50 0 empty empty empty 17 7 0 10 -262144
-1 -1;
#X obj 131 374 bng 15 250 50 0 empty empty empty 17 7 0 10 -262144
-1 -1;
#X obj 280 374 bng 15 250 50 0 empty empty empty 17 7 0 10 -262144
-1 -1;
#X obj 250 374 bng 15 250 50 0 empty empty empty 17 7 0 10 -262144
-1 -1;
#X obj 220 374 bng 15 250 50 0 empty empty empty 17 7 0 10 -262144
-1 -1;
#X obj 309 374 bng 15 250 50 0 empty empty empty 17 7 0 10 -262144
-1 -1;
#X obj 399 374 bng 15 250 50 0 empty empty empty 17 7 0 10 -262144
-1 -1;
#X obj 369 374 bng 15 250 50 0 empty empty empty 17 7 0 10 -262144
-1 -1;
#X obj 339 374 bng 15 250 50 0 empty empty empty 17 7 0 10 -262144
-1 -1;
#X msg 88 398 0.1;
#X obj 250 495 send addVal;
#X obj 103 448 r addVal;
#X floatatom 103 472 5 0 0 0 - - -;
#X msg 23 510 0;
#X floatatom 371 117 5 0 0 0 - - -;
#X floatatom 391 138 5 0 0 0 - - -;
#X floatatom 352 196 5 0 0 0 - - -;
#X obj 352 164 norm100;
#X floatatom 330 117 5 0 0 0 - - -;
#X obj 330 42 bng 15 250 50 0 empty empty empty 17 7 0 10 -262144 -1
-1;
#X msg 371 71 0;
#X obj 371 41 r init;
#X obj 453 174 s init;
#X obj 453 100 bng 64 250 50 0 empty empty INIT 8 34 0 20 -257985 -1
-1;
#X text 134 326 30s 60s 90s 120s 150s 180s 210s 240s 270s 300s;
#X text 450 70 <-- input min \, max slider values here;
#X text 528 123 <-- click before performance;
#X text 211 116 Input intensity-->;
#X obj 160 4 tgl 64 0 empty empty START 2 34 0 20 -4034 -1 -1 0 1;
#X msg 406 71 0.2;
#X obj 118 669 s intensity;
#X obj 163 462 r reduce;
#X obj 103 527 f;
#X obj 128 527 + 1;
#X obj 128 571 moses 0;
#X obj 118 617 moses 100;
#X floatatom 118 642 5 0 0 0 - - -;
#X obj 103 502 t b f;
#X obj 292 416 * 1.4;
#X msg 163 485 -0.1;
#X obj 160 80 metro 500;
#X connect 0 0 2 0;
#X connect 0 0 5 0;
#X connect 1 0 4 0;
#X connect 2 0 1 0;
#X connect 2 0 3 0;
#X connect 3 0 2 1;
#X connect 4 0 11 0;
#X connect 4 1 10 0;
#X connect 4 2 9 0;
#X connect 4 3 14 0;
#X connect 4 4 13 0;
#X connect 4 5 12 0;
#X connect 4 6 15 0;
#X connect 4 7 18 0;
#X connect 4 8 17 0;
#X connect 4 9 16 0;
#X connect 5 0 20 0;
#X connect 6 0 2 0;
#X connect 6 0 4 0;
#X connect 7 0 6 0;
#X connect 7 0 19 0;
#X connect 7 0 23 0;
#X connect 8 0 5 0;
#X connect 8 0 48 0;
#X connect 9 0 8 0;
#X connect 10 0 8 0;
#X connect 11 0 8 0;
#X connect 12 0 8 0;
#X connect 13 0 8 0;
#X connect 14 0 8 0;
#X connect 15 0 8 0;
#X connect 16 0 8 0;
#X connect 17 0 8 0;
#X connect 18 0 8 0;
#X connect 19 0 8 0;
#X connect 21 0 22 0;
#X connect 22 0 47 0;
#X connect 23 0 42 0;
#X connect 24 0 27 1;
#X connect 25 0 27 2;
#X connect 27 0 26 0;
#X connect 28 0 27 0;
#X connect 29 0 28 0;
#X connect 30 0 24 0;
#X connect 31 0 30 0;
#X connect 31 0 39 0;
#X connect 33 0 32 0;
#X connect 38 0 50 0;
#X connect 39 0 25 0;
#X connect 41 0 49 0;
#X connect 42 0 43 0;
#X connect 43 0 44 0;
#X connect 44 1 45 0;
#X connect 45 0 42 1;
#X connect 45 0 46 0;
#X connect 46 0 40 0;
#X connect 47 0 42 0;
#X connect 47 1 43 1;
#X connect 48 0 8 1;
#X connect 49 0 47 0;
#X connect 50 0 0 0;
